<svg width="456" height="459" viewBox="0 0 456 459" fill="none" xmlns="http://www.w3.org/2000/svg">
<path fill-rule="evenodd" clip-rule="evenodd" d="M217.348 15.5054C208.809 16.6664 195.301 21.5574 188.793 25.8424C185.998 27.6834 150.745 55.2174 110.454 87.0284C31.3071 149.518 29.7521 150.912 22.4981 165.94C14.5391 182.428 15.0051 175.065 15.0051 284.44C15.0051 375.281 15.1281 382.372 16.8031 388.271C24.4131 415.06 43.8851 434.532 70.6741 442.142C76.6421 443.837 85.6461 443.94 227.505 443.94C369.364 443.94 378.368 443.837 384.336 442.142C411.125 434.532 430.597 415.06 438.207 388.271C439.882 382.372 440.005 375.281 440.005 284.44C440.005 175.065 440.471 182.428 432.512 165.94C425.181 150.752 423.549 149.286 344.958 87.2474C305.03 55.7284 270.201 28.4874 267.561 26.7114C262.15 23.0714 250.177 18.0334 243.468 16.5734C236.286 15.0104 224.524 14.5294 217.348 15.5054ZM240.802 36.9294C243.946 37.7484 249.103 39.7374 252.262 41.3484C259.617 45.1004 396.986 153.378 405.161 161.867C411.561 168.513 416.574 177.432 418.426 185.468C419.093 188.365 419.465 223.244 419.481 284.508C419.502 368.634 419.327 379.677 417.893 384.508C412.406 402.99 399.055 416.341 380.573 421.828C375.684 423.279 360.401 423.44 227.505 423.44C94.6091 423.44 79.3261 423.279 74.4371 421.828C55.9551 416.341 42.6041 402.99 37.1171 384.508C35.6831 379.677 35.5081 368.634 35.5291 284.508C35.5451 223.244 35.9171 188.365 36.5841 185.468C38.4401 177.416 43.4461 168.515 49.8491 161.886C58.0801 153.364 195.432 45.0974 202.78 41.3394C205.955 39.7154 210.905 37.7534 213.78 36.9794C220.725 35.1084 233.72 35.0844 240.802 36.9294ZM167.428 352.363C165.136 354.656 164.505 356.182 164.505 359.44C164.505 362.698 165.136 364.224 167.428 366.517L170.351 369.44H284.659L287.582 366.517C291.698 362.401 291.698 356.479 287.582 352.363L284.659 349.44H170.351L167.428 352.363Z" fill="#4E9AFF" stroke="#4E9AFF" stroke-width="30"/>
</svg>
