<svg id="Layer_1" data-name="Layer 1" xmlns="http://www.w3.org/2000/svg" viewBox="0 0 250 250"><defs><style>.cls-1{fill:#fff;}.cls-2{fill:#231f20;}</style></defs><rect class="cls-1" x="31.25" y="31.25" width="187.5" height="187.5" rx="31.25"/><path class="cls-2" d="M125,54.84a71.13,71.13,0,0,0-16.54,140.32c-1.62-.38-3.23-.82-4.8-1.31v-16.3a21.73,21.73,0,0,1-6.23.89c-10,0-14.08-8.88-15.11-13.34a13.93,13.93,0,0,0-4-6.86c-2.1-1.87-3.08-1.88-3.1-2.52,0-1.34,1.8-1.29,2.67-1.29,4.45,0,7.82,4.73,9.38,7.18,3.88,6,8,7,10.18,7a15.6,15.6,0,0,0,6.56-1.17,21.11,21.11,0,0,1,6.78-13.06C94.09,151.1,82.32,141.53,82.32,126a31.71,31.71,0,0,1,8.57-21.32,28.8,28.8,0,0,1-1.46-9.81,32.24,32.24,0,0,1,1.78-11.56s10.14.08,19.71,9.14a50.08,50.08,0,0,1,28.16,0c9.57-9.06,19.71-9.14,19.71-9.14a32,32,0,0,1,1.78,11.56A34.28,34.28,0,0,1,159.39,105a31.66,31.66,0,0,1,8.29,21c0,15.55-11.77,25.12-28.45,28.45a21.09,21.09,0,0,1,7.11,16v23.41c-1.57.5-3.18.93-4.8,1.31A71.13,71.13,0,0,0,125,54.84Z"/></svg>