<svg xmlns="http://www.w3.org/2000/svg" xmlns:xlink="http://www.w3.org/1999/xlink" width="1242" zoomAndPan="magnify" viewBox="0 0 931.5 523.499989" height="698" preserveAspectRatio="xMidYMid meet" version="1.0"><defs><clipPath id="3182c15986"><path d="M 0.195312 0 L 930.804688 0 L 930.804688 523 L 0.195312 523 Z M 0.195312 0 " clip-rule="nonzero"/></clipPath><clipPath id="f5f79f728e"><path d="M 372.941406 115.21875 L 530 115.21875 L 530 407 L 372.941406 407 Z M 372.941406 115.21875 " clip-rule="nonzero"/></clipPath><clipPath id="e7644610df"><path d="M 488 332 L 575.246094 332 L 575.246094 407 L 488 407 Z M 488 332 " clip-rule="nonzero"/></clipPath></defs><g clip-path="url(#3182c15986)"><path fill="#ffffff" d="M 0.195312 0 L 930.804688 0 L 930.804688 523 L 0.195312 523 Z M 0.195312 0 " fill-opacity="1" fill-rule="nonzero"/><path fill="#ffffff" d="M 0.195312 0 L 930.804688 0 L 930.804688 523 L 0.195312 523 Z M 0.195312 0 " fill-opacity="1" fill-rule="nonzero"/></g><g clip-path="url(#f5f79f728e)"><path fill="#2c2c2c" d="M 444.40625 115.226562 L 372.941406 115.226562 L 372.941406 406.355469 L 529.070312 406.355469 L 457.601562 332.75 L 444.40625 332.75 Z M 444.40625 115.226562 " fill-opacity="1" fill-rule="nonzero"/></g><g clip-path="url(#e7644610df)"><path fill="#4e9aff" d="M 562.054688 406.355469 L 575.246094 406.355469 L 575.246094 332.75 L 488.386719 332.75 Z M 562.054688 406.355469 " fill-opacity="1" fill-rule="nonzero"/></g></svg>