<svg id="Layer_1" data-name="Layer 1" xmlns="http://www.w3.org/2000/svg" viewBox="0 0 250 250"><defs><style>.cls-1{fill:#fff;}.cls-2{fill:#231f20;}</style></defs><rect class="cls-1" x="31.25" y="31.25" width="187.5" height="187.5" rx="31.25"/><rect class="cls-2" x="74.22" y="105.47" width="19.53" height="78.13"/><path class="cls-2" d="M93.86,89.88A13.2,13.2,0,0,1,84,93.75a13,13,0,0,1-9.84-4A13.63,13.63,0,0,1,70.31,80a13.12,13.12,0,0,1,3.83-9.75A13.4,13.4,0,0,1,84,66.41a13.37,13.37,0,0,1,9.88,3.78A13.19,13.19,0,0,1,97.66,80,13.59,13.59,0,0,1,93.86,89.88Z"/><path class="cls-2" d="M183.59,183.59H164.06V140.18c0-12.1-7-19.09-15.62-19.09-4.17,0-8.89,2.54-11.58,5.74A18.32,18.32,0,0,0,132.81,139v44.55H113.28V105.47h19.53v12.36h.31c5.75-9.51,14.11-14.24,25.1-14.27,15.61,0,25.37,11.67,25.37,32.2Z"/></svg>