<svg id="Layer_1" data-name="Layer 1" xmlns="http://www.w3.org/2000/svg" viewBox="0 0 250 250"><defs><style>.cls-1{fill:#fff;}.cls-2{fill:#231f20;}</style></defs><rect class="cls-1" x="31.25" y="31.25" width="187.5" height="187.5" rx="31.25"/><path class="cls-2" d="M65,80H185a8.5,8.5,0,0,1,2.55.35l-49.15,49.1a19,19,0,0,1-26.85,0l-49.1-49.1A8.5,8.5,0,0,1,65,80Zm-9.65,7.45L93,125l-37.6,37.55A8.5,8.5,0,0,1,55,160V90A8.5,8.5,0,0,1,55.35,87.45Zm139.3,0A8.5,8.5,0,0,1,195,90v70a8.5,8.5,0,0,1-.35,2.55L157,125ZM100,132.05l4.45,4.5a29.09,29.09,0,0,0,41,0l4.5-4.5,37.6,37.6A8.5,8.5,0,0,1,185,170H65a8.5,8.5,0,0,1-2.55-.35Z"/></svg>